<svg xmlns="http://www.w3.org/2000/svg" width="48" height="48" fill="none" stroke="currentColor" stroke-linecap="round" stroke-linejoin="round" stroke-width="2" class="lucide lucide-image-up-icon lucide-image-up" viewBox="0 0 512 512"><rect width="512" height="512" fill="#fff" rx="0" ry="0"/><defs><clipPath id="a"><rect width="512" height="512" rx="0" ry="0"/></clipPath>
  <style>
    @media (prefers-color-scheme: dark) {
      svg { filter: invert(0%) hue-rotate(0deg) saturate(100%) contrast(100%) brightness(1); }
    }
  </style></defs><g clip-path="url(#a)"><g transform="scale(21.33333)"><path d="M10.3 21H5a2 2 0 0 1-2-2V5a2 2 0 0 1 2-2h14a2 2 0 0 1 2 2v10l-3.1-3.1a2 2 0 0 0-2.814.014L6 21"/><path d="m14 19.5 3-3 3 3M17 22v-5.5"/><circle cx="9" cy="9" r="2"/></g></g></svg>